<svg width="35" height="35" viewBox="0 0 50 50" fill="none" xmlns="http://www.w3.org/2000/svg">
<path d="M23.9158 27.0514C25.1763 27.3864 26.419 27.7837 27.6208 28.2862C29.368 29.0169 31.1216 29.7545 32.6961 30.8197C33.5366 31.3884 34.4565 31.8522 35.186 32.5895C35.3381 32.7434 35.3338 32.7925 35.2375 32.9339C34.9455 33.3627 34.7885 33.799 34.8728 34.3567C35.0426 35.4799 36.425 36.1725 37.3716 35.5074C37.7931 35.2112 37.9525 35.314 38.1641 35.6915C38.7786 36.7869 39.3805 37.8697 39.3646 39.1934C39.3463 40.7265 38.6633 41.897 37.5061 42.8194C36.022 44.0022 34.263 44.5407 32.4318 44.8737C29.691 45.3722 26.9423 45.284 24.1941 44.9324C21.3146 44.5639 18.5311 43.81 15.8083 42.8202C14.527 42.3544 13.2855 41.7932 12.0833 41.1525C10.6653 40.3969 9.25746 39.6185 8.00796 38.5947C7.5003 38.1787 7.01063 37.7392 6.52963 37.292C6.1053 36.8975 6.1158 36.8864 6.5218 36.5057C7.56846 35.5245 7.82696 33.9029 7.05363 32.6937C6.4253 31.7114 5.35613 31.004 4.04996 31.3C3.68813 31.382 3.57313 31.263 3.64413 30.8944C3.85496 29.7995 4.4753 28.9447 5.29913 28.243C6.84446 26.9269 8.73896 26.4455 10.6706 26.0495C11.9118 25.795 13.1715 25.7457 14.423 25.7367C15.8405 25.7264 17.266 25.7717 18.6728 26.0237C18.9173 26.0675 18.9901 26.1505 18.9968 26.392C19.0251 27.4099 19.0326 27.4132 18.0218 27.3274C17.172 27.2552 16.3275 27.1119 15.47 27.1449C14.1073 27.1975 12.7586 27.3097 11.4818 27.8595C10.3168 28.3614 9.47696 29.1905 8.91463 30.3127C8.85913 30.4234 8.77046 30.5495 8.8483 30.6995C9.03563 30.733 9.1053 30.5714 9.1963 30.4715C10.6596 28.8677 12.5208 28.109 14.636 27.8259C15.984 27.6454 17.3186 27.6704 18.6618 27.823C18.9435 27.855 19.0168 27.9764 18.9956 28.2285C18.9806 28.4074 18.9893 28.5884 18.9893 28.7684C18.9895 29.5617 18.9918 29.5425 18.1955 29.453C16.8706 29.304 15.5585 29.3719 14.305 29.8694C13.3126 30.2632 12.6303 30.9765 12.228 32.0617C12.6305 31.8957 12.802 31.5837 13.0346 31.359C14.0231 30.4044 15.2471 30.0152 16.5595 29.8387C17.271 29.743 17.9881 29.685 18.7088 29.7999C18.915 29.8327 19.007 29.9067 18.9906 30.1114C18.9883 30.1412 18.9901 30.1714 18.991 30.2014C19.015 31.0134 19.0116 30.9919 18.2225 31.114C17.4705 31.2304 16.7143 31.3512 16.0486 31.772C14.9011 32.4974 14.653 33.515 15.3963 34.6412C15.9143 35.426 16.6366 36.0107 17.4265 36.5045C18.8091 37.369 20.326 37.8974 21.9173 38.2125C23.6043 38.5467 25.2886 38.5934 26.9253 37.9674C27.6623 37.6854 28.2605 37.2319 28.3765 36.362C28.4458 35.8422 28.2811 35.3799 28.0083 34.9604C27.2828 33.8445 26.2278 33.1144 25.0578 32.5407C24.6745 32.3529 24.3101 32.088 23.853 32.0845C23.87 31.9099 23.9008 31.735 23.9018 31.56C23.9096 30.0569 23.912 28.554 23.9158 27.0514ZM22.5356 41.9014C22.6651 42.1099 22.8495 42.1067 23.005 42.1947C23.1616 42.2832 23.3816 42.2525 23.5688 42.2959C25.4303 42.726 27.3163 42.8997 29.2206 42.7635C30.4438 42.676 31.637 42.4337 32.7056 41.7702C33.7833 41.1012 34.5431 40.2004 34.83 38.9334C33.6105 40.5875 31.9025 41.4657 29.9791 41.9614C28.3523 42.3805 26.6793 42.2787 25.0183 42.2649C24.9478 42.2642 24.879 42.2162 24.8071 42.2064C24.0501 42.1029 23.2928 42.0025 22.5356 41.9014ZM23.288 40.1252C23.3488 40.2084 23.362 40.2467 23.3815 40.2502C24.6936 40.4855 26.0115 40.6619 27.3483 40.5347C28.2496 40.449 29.1326 40.2707 29.8916 39.7414C30.5215 39.3022 31.041 38.7647 31.2268 37.8705C30.8073 38.395 30.3906 38.7794 29.9153 39.0937C28.2393 40.2017 26.3618 40.297 24.4423 40.1639C24.0741 40.1384 23.7081 40.0682 23.288 40.1252Z" fill="url(#paint0_linear_170_4)"/>
<path d="M23.9158 27.0513C23.9118 28.554 23.9095 30.0568 23.9018 31.5595C23.901 31.7345 23.87 31.9093 23.853 32.084C23.9405 32.4835 23.897 32.889 23.8886 33.2903C23.8833 33.5485 23.9673 33.7003 24.186 33.8332C24.6118 34.092 24.988 34.4173 25.2495 34.849C25.6705 35.544 25.489 36.1708 24.7528 36.523C23.9356 36.9138 23.07 36.9092 22.1963 36.782C20.8976 36.593 19.6898 36.1742 18.677 35.3123C18.2005 34.9068 17.744 34.424 17.9305 33.7373C18.123 33.0283 18.7806 32.8315 19.4125 32.7532C19.8253 32.702 19.9015 32.5558 19.901 32.1765C19.8901 23.8052 19.8931 15.434 19.8911 7.06268C19.8908 6.02001 19.4666 5.56234 18.4505 5.43301C18.1508 5.39484 17.8541 5.37984 17.5566 5.39284C17.2943 5.40434 17.1945 5.33634 17.1925 5.04501C17.1855 4.03134 17.1721 4.03151 18.1721 3.98084C19.9396 3.89118 21.708 3.81351 23.474 3.70151C23.8523 3.67751 23.914 3.79401 23.9131 4.13734C23.901 9.20784 23.902 14.2785 23.9 19.349C23.9 19.4782 23.9 19.6073 23.9 19.8517C24.521 19.1365 25.1015 18.5437 25.7893 18.0677C27.5838 16.8257 29.6008 16.2058 31.7465 15.9907C34.7141 15.693 37.5803 16.105 40.2865 17.395C42.522 18.4607 44.2913 20.0105 45.2276 22.3745C45.6253 23.3785 45.7558 24.4258 45.7543 25.5005C45.7478 30.3612 45.7511 35.222 45.7508 40.0827C45.7508 40.5188 45.781 40.9527 45.898 41.3742C46.263 42.689 47.0981 43.4078 48.457 43.4933C48.9561 43.5248 48.7801 43.836 48.815 44.0812C48.8598 44.3978 48.688 44.441 48.4191 44.4405C45.3133 44.4332 42.2076 44.4327 39.1018 44.4397C38.8266 44.4403 38.6591 44.3872 38.7046 44.0728C38.7383 43.84 38.561 43.5285 39.0371 43.5003C40.2866 43.4265 41.7841 42.3358 41.7723 40.4887C41.7396 35.4032 41.7681 30.3172 41.7561 25.2315C41.7525 23.6825 41.045 22.4357 39.9401 21.4042C38.5531 20.109 36.8728 19.3792 35.0366 19.0057C32.6323 18.5167 30.2731 18.6113 27.9956 19.6377C26.6975 20.2228 25.6451 21.1297 24.9241 22.3123C24.3926 23.1842 24.009 24.1828 23.9605 25.2547C23.9335 25.8538 23.8746 26.4512 23.9158 27.0513Z" fill="white"/>
<path d="M4.45497 31.9968C5.82864 31.899 6.74047 33.1675 6.74414 34.1866C6.74881 35.4848 5.75997 36.554 4.50331 36.5701C3.27297 36.5861 2.23764 35.5803 2.20781 34.3399C2.17514 32.9908 3.10047 32.026 4.45497 31.9968Z" fill="white"/>
<path d="M35.349 34.0375C35.3642 33.3765 35.915 32.8374 36.5592 32.8529C37.227 32.869 37.7523 33.4424 37.7273 34.128C37.7032 34.7934 37.1605 35.2979 36.4925 35.2759C35.8245 35.2539 35.3332 34.7219 35.349 34.0375Z" fill="white"/>
<path d="M22.5356 41.9014C23.2928 42.0026 24.0501 42.1029 24.807 42.2066C24.8788 42.2164 24.9476 42.2644 25.0181 42.2651C26.679 42.2789 28.3521 42.3808 29.979 41.9616C31.9023 41.4659 33.6103 40.5878 34.8298 38.9336C34.543 40.2006 33.7831 41.1014 32.7055 41.7704C31.6368 42.4339 30.4436 42.6763 29.2205 42.7638C27.3161 42.8999 25.4301 42.7263 23.5686 42.2961C23.3815 42.2528 23.1615 42.2836 23.0048 42.1949C22.8493 42.1068 22.6651 42.1099 22.5356 41.9014Z" fill="#F9F9FA"/>
<path d="M23.288 40.1253C23.7083 40.0681 24.0743 40.1384 24.4423 40.1639C26.3618 40.2971 28.2395 40.2018 29.9153 39.0938C30.3906 38.7796 30.8073 38.3953 31.2268 37.8706C31.041 38.7648 30.5215 39.3023 29.8916 39.7414C29.1326 40.2708 28.2495 40.4489 27.3483 40.5348C26.0115 40.6619 24.6936 40.4856 23.3815 40.2503C23.362 40.2468 23.3488 40.2084 23.288 40.1253Z" fill="#F9F9FA"/>
<defs>
<linearGradient id="paint0_linear_170_4" x1="5.23238" y1="35.4785" x2="38.7019" y2="35.4785" gradientUnits="userSpaceOnUse">
<stop stop-color="#7AC68F"/>
<stop offset="0.5147" stop-color="#2CBCEE"/>
<stop offset="1" stop-color="#6E5DA8"/>
</linearGradient>
</defs>
</svg>
