<svg width="100" height="36" viewBox="0 0 584 209" fill="none" xmlns="http://www.w3.org/2000/svg">
<path d="M238.77 75.16C240.229 75.16 241.506 75.7072 242.6 76.8016C243.756 77.8352 244.333 79.1424 244.333 80.7232V133.437C244.333 135.018 243.756 136.355 242.6 137.45C241.445 138.483 240.108 139 238.588 139C236.885 139 235.517 138.483 234.484 137.45C233.45 136.355 232.933 135.018 232.933 133.437V80.7232C232.933 79.1424 233.48 77.8352 234.575 76.8016C235.669 75.7072 237.068 75.16 238.77 75.16ZM279.172 75.16C280.874 75.16 282.242 75.7072 283.276 76.8016C284.309 77.8352 284.826 79.1424 284.826 80.7232V133.437C284.826 135.018 284.279 136.355 283.184 137.45C282.151 138.483 280.752 139 278.989 139C277.53 139 276.223 138.483 275.068 137.45C273.973 136.355 273.426 135.018 273.426 133.437V80.7232C273.426 79.1424 274.004 77.8352 275.159 76.8016C276.314 75.7072 277.652 75.16 279.172 75.16ZM238.496 101.699H279.172V112.187H238.496V101.699ZM305.141 133.437C305.141 135.018 304.624 136.355 303.59 137.45C302.557 138.483 301.25 139 299.669 139C298.088 139 296.781 138.483 295.747 137.45C294.714 136.355 294.197 135.018 294.197 133.437V95.7712C294.197 94.1904 294.714 92.8832 295.747 91.8496C296.781 90.7552 298.088 90.208 299.669 90.208C301.25 90.208 302.557 90.7552 303.59 91.8496C304.624 92.8832 305.141 94.1904 305.141 95.7712V133.437ZM299.578 84.28C297.51 84.28 296.051 83.9456 295.2 83.2768C294.349 82.608 293.923 81.4224 293.923 79.72V77.9872C293.923 76.224 294.379 75.0384 295.291 74.4304C296.264 73.7616 297.723 73.4272 299.669 73.4272C301.797 73.4272 303.286 73.7616 304.138 74.4304C304.989 75.0992 305.414 76.2848 305.414 77.9872V79.72C305.414 81.4832 304.958 82.6992 304.046 83.368C303.134 83.976 301.645 84.28 299.578 84.28ZM314.199 91.12H335.814C337.273 91.12 338.489 91.6064 339.462 92.5792C340.435 93.552 340.921 94.768 340.921 96.2272C340.921 97.6256 340.435 98.8112 339.462 99.784C338.489 100.696 337.273 101.152 335.814 101.152H314.199C312.74 101.152 311.524 100.666 310.551 99.6928C309.579 98.72 309.092 97.504 309.092 96.0448C309.092 94.6464 309.579 93.4912 310.551 92.5792C311.524 91.6064 312.74 91.12 314.199 91.12ZM323.958 79.72C325.539 79.72 326.815 80.2672 327.788 81.3616C328.822 82.3952 329.339 83.7024 329.339 85.2832V125.867C329.339 126.718 329.491 127.418 329.795 127.965C330.159 128.512 330.615 128.907 331.163 129.15C331.771 129.394 332.409 129.515 333.078 129.515C333.807 129.515 334.476 129.394 335.084 129.15C335.692 128.846 336.391 128.694 337.182 128.694C338.033 128.694 338.793 129.09 339.462 129.88C340.191 130.67 340.556 131.765 340.556 133.163C340.556 134.866 339.614 136.264 337.729 137.358C335.905 138.453 333.929 139 331.801 139C330.524 139 329.095 138.909 327.515 138.726C325.995 138.483 324.535 137.966 323.137 137.176C321.799 136.325 320.675 135.048 319.763 133.346C318.851 131.643 318.395 129.302 318.395 126.323V85.2832C318.395 83.7024 318.911 82.3952 319.945 81.3616C321.039 80.2672 322.377 79.72 323.958 79.72ZM373.861 89.296C378.725 89.296 382.312 90.4816 384.622 92.8528C386.933 95.1632 388.453 98.1728 389.182 101.882L387.632 101.061L388.361 99.6016C389.091 98.2032 390.216 96.7136 391.736 95.1328C393.256 93.4912 395.08 92.1232 397.208 91.0288C399.397 89.8736 401.829 89.296 404.504 89.296C408.881 89.296 412.195 90.2384 414.445 92.1232C416.755 94.008 418.336 96.5312 419.187 99.6928C420.038 102.794 420.464 106.259 420.464 110.09V133.437C420.464 135.018 419.947 136.355 418.913 137.45C417.88 138.483 416.573 139 414.992 139C413.411 139 412.104 138.483 411.07 137.45C410.037 136.355 409.52 135.018 409.52 133.437V110.09C409.52 108.083 409.277 106.29 408.79 104.709C408.304 103.067 407.422 101.76 406.145 100.787C404.869 99.8144 403.045 99.328 400.673 99.328C398.363 99.328 396.387 99.8144 394.745 100.787C393.104 101.76 391.857 103.067 391.006 104.709C390.216 106.29 389.821 108.083 389.821 110.09V133.437C389.821 135.018 389.304 136.355 388.27 137.45C387.237 138.483 385.929 139 384.349 139C382.768 139 381.461 138.483 380.427 137.45C379.393 136.355 378.877 135.018 378.877 133.437V110.09C378.877 108.083 378.633 106.29 378.147 104.709C377.661 103.067 376.779 101.76 375.502 100.787C374.225 99.8144 372.401 99.328 370.03 99.328C367.72 99.328 365.744 99.8144 364.102 100.787C362.461 101.76 361.214 103.067 360.363 104.709C359.573 106.29 359.177 108.083 359.177 110.09V133.437C359.177 135.018 358.661 136.355 357.627 137.45C356.593 138.483 355.286 139 353.705 139C352.125 139 350.817 138.483 349.784 137.45C348.75 136.355 348.233 135.018 348.233 133.437V95.7712C348.233 94.1904 348.75 92.8832 349.784 91.8496C350.817 90.7552 352.125 90.208 353.705 90.208C355.286 90.208 356.593 90.7552 357.627 91.8496C358.661 92.8832 359.177 94.1904 359.177 95.7712V99.6928L357.809 99.4192C358.357 98.3856 359.117 97.2912 360.089 96.136C361.062 94.92 362.248 93.7952 363.646 92.7616C365.045 91.728 366.595 90.9072 368.297 90.2992C370 89.6304 371.854 89.296 373.861 89.296ZM469.518 89.296C471.099 89.296 472.406 89.8128 473.44 90.8464C474.473 91.88 474.99 93.2176 474.99 94.8592V133.437C474.99 135.018 474.473 136.355 473.44 137.45C472.406 138.483 471.099 139 469.518 139C467.937 139 466.63 138.483 465.596 137.45C464.563 136.355 464.046 135.018 464.046 133.437V128.968L466.052 129.789C466.052 130.579 465.627 131.552 464.776 132.707C463.924 133.802 462.769 134.896 461.31 135.99C459.851 137.085 458.118 138.027 456.112 138.818C454.166 139.547 452.038 139.912 449.728 139.912C445.532 139.912 441.732 138.848 438.328 136.72C434.923 134.531 432.217 131.552 430.211 127.782C428.265 123.952 427.292 119.574 427.292 114.65C427.292 109.664 428.265 105.286 430.211 101.517C432.217 97.6864 434.892 94.7072 438.236 92.5792C441.58 90.3904 445.289 89.296 449.363 89.296C451.977 89.296 454.379 89.6912 456.568 90.4816C458.756 91.272 460.641 92.2752 462.222 93.4912C463.864 94.7072 465.11 95.9536 465.961 97.2304C466.873 98.4464 467.329 99.48 467.329 100.331L464.046 101.517V94.8592C464.046 93.2784 464.563 91.9712 465.596 90.9376C466.63 89.8432 467.937 89.296 469.518 89.296ZM451.096 129.88C453.771 129.88 456.112 129.211 458.118 127.874C460.124 126.536 461.675 124.712 462.769 122.402C463.924 120.091 464.502 117.507 464.502 114.65C464.502 111.731 463.924 109.117 462.769 106.806C461.675 104.496 460.124 102.672 458.118 101.334C456.112 99.9968 453.771 99.328 451.096 99.328C448.481 99.328 446.171 99.9968 444.164 101.334C442.158 102.672 440.577 104.496 439.422 106.806C438.328 109.117 437.78 111.731 437.78 114.65C437.78 117.507 438.328 120.091 439.422 122.402C440.577 124.712 442.158 126.536 444.164 127.874C446.171 129.211 448.481 129.88 451.096 129.88ZM490.488 139C488.907 139 487.6 138.483 486.566 137.45C485.532 136.355 485.016 135.018 485.016 133.437V77.0752C485.016 75.4944 485.532 74.1872 486.566 73.1536C487.6 72.0592 488.907 71.512 490.488 71.512C492.068 71.512 493.376 72.0592 494.409 73.1536C495.443 74.1872 495.96 75.4944 495.96 77.0752V133.437C495.96 135.018 495.443 136.355 494.409 137.45C493.376 138.483 492.068 139 490.488 139ZM519.489 90.208C520.888 90.208 522.104 90.7856 523.137 91.9408C524.171 93.096 524.688 94.2208 524.688 95.3152C524.688 96.7744 523.958 98.1424 522.499 99.4192L495.048 124.682L494.592 112.096L515.476 91.9408C516.632 90.7856 517.969 90.208 519.489 90.208ZM520.857 138.909C519.276 138.909 517.939 138.301 516.844 137.085L499.972 119.21L508.272 111.549L524.688 129.424C525.843 130.64 526.42 132.008 526.42 133.528C526.42 135.109 525.782 136.416 524.505 137.45C523.289 138.422 522.073 138.909 520.857 138.909ZM538.763 139C537.182 139 535.875 138.483 534.841 137.45C533.808 136.355 533.291 135.018 533.291 133.437V95.7712C533.291 94.1904 533.808 92.8832 534.841 91.8496C535.875 90.7552 537.182 90.208 538.763 90.208C540.344 90.208 541.651 90.7552 542.685 91.8496C543.718 92.8832 544.235 94.1904 544.235 95.7712V104.344L543.597 98.2336C544.265 96.7744 545.117 95.4976 546.15 94.4032C547.245 93.248 548.461 92.3056 549.798 91.576C551.136 90.7856 552.565 90.208 554.085 89.8432C555.605 89.4784 557.125 89.296 558.645 89.296C560.469 89.296 561.989 89.8128 563.205 90.8464C564.481 91.88 565.12 93.096 565.12 94.4944C565.12 96.5008 564.603 97.96 563.569 98.872C562.536 99.7232 561.411 100.149 560.195 100.149C559.04 100.149 557.976 99.936 557.003 99.5104C556.091 99.0848 555.027 98.872 553.811 98.872C552.717 98.872 551.592 99.1456 550.437 99.6928C549.342 100.179 548.309 100.97 547.336 102.064C546.424 103.158 545.664 104.526 545.056 106.168C544.509 107.749 544.235 109.634 544.235 111.822V133.437C544.235 135.018 543.718 136.355 542.685 137.45C541.651 138.483 540.344 139 538.763 139Z" fill="white"/>
<path d="M99.9681 113.075C105.237 114.475 110.431 116.136 115.455 118.236C122.758 121.29 130.089 124.374 136.67 128.826C140.183 131.203 144.028 133.142 147.077 136.224C147.713 136.867 147.695 137.073 147.293 137.663C146.072 139.456 145.416 141.28 145.768 143.611C146.478 148.306 152.256 151.201 156.214 148.421C157.975 147.183 158.641 147.612 159.526 149.19C162.095 153.769 164.61 158.295 164.544 163.828C164.468 170.237 161.613 175.129 156.776 178.985C150.572 183.929 143.219 186.18 135.565 187.572C124.108 189.656 112.619 189.287 101.132 187.817C89.0952 186.277 77.4602 183.126 66.0788 178.988C60.7228 177.041 55.5333 174.695 50.5083 172.017C44.581 168.859 38.6963 165.605 33.4734 161.326C31.3513 159.587 29.3045 157.75 27.294 155.88C25.5202 154.231 25.5641 154.185 27.2612 152.594C31.6363 148.492 32.7168 141.714 29.4843 136.659C26.8578 132.553 22.3887 129.597 16.929 130.834C15.4165 131.177 14.9358 130.679 15.2326 129.138C16.1139 124.562 18.7068 120.989 22.1505 118.056C28.61 112.554 36.529 110.542 44.6033 108.887C49.7914 107.823 55.0568 107.617 60.2881 107.579C66.2132 107.536 72.1718 107.726 78.0524 108.779C79.0744 108.962 79.3788 109.309 79.4067 110.318C79.5251 114.573 79.5565 114.587 75.3312 114.228C71.7789 113.927 68.2489 113.327 64.6645 113.465C58.9686 113.685 53.3312 114.154 47.994 116.453C43.1243 118.55 39.6138 122.016 37.2633 126.707C37.0313 127.169 36.6606 127.697 36.986 128.324C37.769 128.464 38.0602 127.788 38.4406 127.371C44.5574 120.667 52.337 117.496 61.1784 116.312C66.8131 115.557 72.392 115.662 78.0064 116.3C79.1838 116.434 79.4903 116.941 79.4018 117.995C79.3391 118.743 79.3754 119.499 79.3754 120.252C79.3761 123.568 79.3858 123.488 76.0571 123.113C70.5193 122.491 65.0345 122.774 59.7948 124.854C55.6469 126.5 52.7947 129.482 51.113 134.018C52.7954 133.324 53.5123 132.02 54.4849 131.081C58.6168 127.09 63.7331 125.463 69.2187 124.726C72.1927 124.326 75.1905 124.083 78.2029 124.563C79.0646 124.7 79.4492 125.01 79.3809 125.865C79.3712 125.99 79.3788 126.116 79.3823 126.241C79.4826 129.636 79.4687 129.546 76.17 130.056C73.0266 130.543 69.8659 131.048 67.0834 132.807C62.2868 135.839 61.2495 140.093 64.3566 144.8C66.5219 148.081 69.5412 150.525 72.8427 152.589C78.6223 156.202 84.9626 158.411 91.6144 159.728C98.6661 161.125 105.707 161.32 112.548 158.703C115.628 157.525 118.129 155.629 118.614 151.993C118.904 149.82 118.215 147.888 117.075 146.134C114.042 141.47 109.632 138.418 104.742 136.02C103.139 135.235 101.616 134.128 99.7055 134.113C99.7765 133.383 99.9054 132.652 99.9096 131.921C99.9423 125.637 99.9521 119.356 99.9681 113.075ZM94.199 175.148C94.7403 176.019 95.5109 176.006 96.1608 176.374C96.8157 176.744 97.7353 176.615 98.5177 176.797C106.299 178.595 114.182 179.321 122.142 178.751C127.255 178.386 132.243 177.373 136.71 174.599C141.214 171.803 144.39 168.037 145.589 162.741C140.492 169.656 133.352 173.326 125.313 175.398C118.513 177.15 111.52 176.725 104.577 176.667C104.282 176.664 103.994 176.463 103.694 176.422C100.53 175.99 97.364 175.57 94.199 175.148ZM97.3438 167.723C97.5981 168.071 97.6531 168.231 97.7346 168.246C103.219 169.229 108.728 169.966 114.316 169.435C118.084 169.077 121.774 168.331 124.947 166.119C127.58 164.283 129.751 162.036 130.528 158.299C128.775 160.491 127.033 162.098 125.046 163.411C118.04 168.043 110.192 168.441 102.169 167.885C100.63 167.778 99.1001 167.485 97.3438 167.723Z" fill="url(#paint0_linear_285_13)"/>
<path d="M99.9682 113.075C99.9514 119.356 99.9417 125.638 99.9096 131.919C99.9062 132.65 99.7766 133.381 99.7055 134.111C100.071 135.781 99.8894 137.476 99.8546 139.154C99.8323 140.233 100.183 140.867 101.097 141.423C102.877 142.505 104.45 143.864 105.543 145.669C107.303 148.574 106.544 151.194 103.467 152.666C100.051 154.3 96.4326 154.28 92.7806 153.749C87.3522 152.959 82.3035 151.208 78.0698 147.606C76.0781 145.911 74.1699 143.892 74.9495 141.022C75.7541 138.058 78.5032 137.236 81.1442 136.908C82.8699 136.694 83.1882 136.083 83.1862 134.498C83.1409 99.5056 83.1534 64.5141 83.145 29.5219C83.1437 25.1636 81.3706 23.2505 77.1231 22.7099C75.8705 22.5504 74.6304 22.4877 73.3868 22.542C72.2903 22.5901 71.873 22.3058 71.8646 21.0881C71.8354 16.8509 71.7796 16.8516 75.9596 16.6398C83.3478 16.265 90.7394 15.9404 98.1213 15.4722C99.7027 15.3719 99.9605 15.8589 99.957 17.294C99.9062 38.4887 99.9103 59.6841 99.902 80.8788C99.902 81.4187 99.902 81.9586 99.902 82.9799C102.498 79.9905 104.924 77.5125 107.799 75.5228C115.3 70.3312 123.731 67.7403 132.7 66.8409C145.105 65.5967 157.086 67.3189 168.398 72.7111C177.742 77.1655 185.138 83.6438 189.052 93.5254C190.714 97.7221 191.259 102.1 191.253 106.592C191.226 126.91 191.24 147.228 191.238 167.545C191.238 169.369 191.365 171.182 191.854 172.944C193.379 178.44 196.87 181.445 202.55 181.802C204.637 181.934 203.901 183.234 204.047 184.259C204.234 185.583 203.516 185.763 202.392 185.761C189.41 185.731 176.428 185.728 163.446 185.758C162.295 185.761 161.595 185.538 161.785 184.224C161.926 183.251 161.185 181.949 163.175 181.831C168.398 181.523 174.658 176.964 174.608 169.243C174.472 147.985 174.591 126.726 174.541 105.468C174.525 98.9928 171.568 93.781 166.95 89.4694C161.152 84.0556 154.128 81.0049 146.453 79.4436C136.403 77.3996 126.542 77.7953 117.022 82.0854C111.596 84.5314 107.197 88.322 104.183 93.2655C101.961 96.9098 100.358 101.084 100.155 105.564C100.042 108.069 99.7961 110.566 99.9682 113.075Z" fill="white"/>
<path d="M18.6219 133.747C24.3638 133.338 28.1753 138.64 28.1906 142.9C28.2101 148.326 24.0768 152.796 18.8239 152.863C13.6811 152.93 9.35343 148.726 9.22872 143.541C9.09218 137.902 12.9601 133.869 18.6219 133.747Z" fill="white"/>
<path d="M147.759 142.277C147.822 139.514 150.125 137.26 152.817 137.325C155.609 137.392 157.805 139.789 157.7 142.655C157.599 145.436 155.331 147.545 152.539 147.453C149.746 147.361 147.693 145.137 147.759 142.277Z" fill="white"/>
<path d="M94.1991 175.147C97.3641 175.57 100.53 175.99 103.693 176.423C103.994 176.464 104.281 176.665 104.576 176.668C111.518 176.725 118.512 177.151 125.312 175.399C133.352 173.327 140.491 169.656 145.589 162.742C144.39 168.038 141.214 171.803 136.709 174.6C132.242 177.373 127.255 178.386 122.142 178.752C114.182 179.321 106.298 178.595 98.517 176.797C97.7347 176.616 96.8151 176.745 96.1602 176.374C95.5102 176.006 94.7404 176.019 94.1991 175.147Z" fill="#F9F9FA"/>
<path d="M97.3438 167.723C99.1008 167.484 100.631 167.778 102.169 167.885C110.192 168.441 118.041 168.043 125.046 163.411C127.033 162.098 128.775 160.492 130.528 158.299C129.751 162.036 127.58 164.283 124.947 166.119C121.775 168.331 118.083 169.076 114.316 169.435C108.728 169.966 103.219 169.229 97.7346 168.246C97.6531 168.231 97.5981 168.071 97.3438 167.723Z" fill="#F9F9FA"/>
<defs>
<linearGradient id="paint0_linear_285_13" x1="21.8714" y1="148.3" x2="161.774" y2="148.3" gradientUnits="userSpaceOnUse">
<stop stop-color="#7AC68F"/>
<stop offset="0.5147" stop-color="#2CBCEE"/>
<stop offset="1" stop-color="#6E5DA8"/>
</linearGradient>
</defs>
</svg>
