<svg width="40" height="40" viewBox="0 0 45 45" fill="none" xmlns="http://www.w3.org/2000/svg">
<path d="M21.5242 24.3461C22.6587 24.6476 23.7771 25.0052 24.8587 25.4575C26.4312 26.1151 28.0095 26.779 29.4265 27.7376C30.183 28.2494 31.0108 28.6669 31.6674 29.3305C31.8043 29.4689 31.8004 29.5132 31.7137 29.6404C31.4509 30.0263 31.3096 30.419 31.3855 30.9209C31.5384 31.9318 32.7825 32.5552 33.6345 31.9565C34.0138 31.69 34.1572 31.7825 34.3477 32.1223C34.9008 33.1081 35.4424 34.0826 35.4282 35.2739C35.4117 36.6538 34.797 37.7072 33.7555 38.5373C32.4198 39.6019 30.8367 40.0865 29.1886 40.3862C26.7219 40.8349 24.2481 40.7555 21.7747 40.439C19.1832 40.1074 16.678 39.4289 14.2275 38.5381C13.0743 38.1188 11.9569 37.6138 10.875 37.0372C9.59879 36.3571 8.33174 35.6566 7.20719 34.7351C6.75029 34.3607 6.30959 33.9652 5.87669 33.5627C5.49479 33.2077 5.50424 33.1976 5.86964 32.855C6.81164 31.972 7.04429 30.5125 6.34829 29.4242C5.78279 28.5401 4.82054 27.9035 3.64499 28.1699C3.31934 28.2437 3.21584 28.1366 3.27974 27.8048C3.46949 26.8195 4.02779 26.0501 4.76924 25.4186C6.16004 24.2341 7.86509 23.8009 9.60359 23.4445C10.7206 23.2154 11.8543 23.171 12.9807 23.1629C14.2564 23.1536 15.5394 23.1944 16.8055 23.4212C17.0256 23.4607 17.0911 23.5354 17.0971 23.7527C17.1226 24.6688 17.1294 24.6718 16.2196 24.5945C15.4548 24.5296 14.6947 24.4006 13.923 24.4303C12.6966 24.4777 11.4828 24.5786 10.3336 25.0735C9.28514 25.5251 8.52929 26.2714 8.02319 27.2813C7.97324 27.3809 7.89344 27.4945 7.96349 27.6295C8.13209 27.6596 8.19479 27.5141 8.27669 27.4243C9.59369 25.9808 11.2687 25.298 13.1724 25.0432C14.3856 24.8807 15.5868 24.9032 16.7956 25.0406C17.0491 25.0694 17.1151 25.1786 17.0961 25.4056C17.0826 25.5665 17.0904 25.7294 17.0904 25.8914C17.0905 26.6054 17.0926 26.5882 16.3759 26.5076C15.1836 26.3735 14.0026 26.4346 12.8745 26.8823C11.9814 27.2368 11.3673 27.8788 11.0052 28.8554C11.3674 28.706 11.5218 28.4252 11.7312 28.223C12.6208 27.3638 13.7224 27.0136 14.9035 26.8547C15.5439 26.7686 16.1893 26.7164 16.8379 26.8198C17.0235 26.8493 17.1063 26.9159 17.0916 27.1001C17.0895 27.127 17.0911 27.1541 17.0919 27.1811C17.1135 27.9119 17.1105 27.8926 16.4002 28.0025C15.7234 28.1072 15.0429 28.216 14.4438 28.5947C13.411 29.2475 13.1877 30.1634 13.8567 31.177C14.3229 31.8833 14.973 32.4095 15.6838 32.854C16.9282 33.632 18.2934 34.1075 19.7256 34.3912C21.2439 34.6919 22.7598 34.7339 24.2328 34.1705C24.8961 33.9167 25.4344 33.5086 25.5388 32.7257C25.6012 32.2579 25.453 31.8418 25.2075 31.4642C24.5545 30.46 23.605 29.8028 22.552 29.2865C22.207 29.1175 21.8791 28.8791 21.4677 28.876C21.483 28.7188 21.5107 28.5614 21.5116 28.4039C21.5187 27.0511 21.5208 25.6985 21.5242 24.3461ZM20.2821 37.7111C20.3986 37.8988 20.5645 37.8959 20.7045 37.9751C20.8455 38.0548 21.0435 38.0272 21.2119 38.0662C22.8873 38.4533 24.5847 38.6096 26.2986 38.4871C27.3994 38.4083 28.4733 38.1902 29.4351 37.5931C30.405 36.991 31.0888 36.1802 31.347 35.0399C30.2494 36.5287 28.7122 37.319 26.9812 37.7651C25.5171 38.1424 24.0114 38.0507 22.5165 38.0383C22.453 38.0377 22.3911 37.9945 22.3264 37.9856C21.6451 37.8925 20.9635 37.8022 20.2821 37.7111ZM20.9592 36.1126C21.0139 36.1874 21.0258 36.2219 21.0433 36.2251C22.2243 36.4369 23.4103 36.5956 24.6135 36.4811C25.4247 36.404 26.2194 36.2435 26.9025 35.7671C27.4693 35.3719 27.9369 34.8881 28.1041 34.0834C27.7266 34.5554 27.3516 34.9013 26.9238 35.1842C25.4154 36.1814 23.7256 36.2672 21.9981 36.1474C21.6667 36.1244 21.3373 36.0613 20.9592 36.1126Z" fill="url(#paint0_linear_168_3)"/>
<path d="M21.5242 24.3462C21.5206 25.6986 21.5185 27.0511 21.5116 28.4035C21.5109 28.561 21.483 28.7184 21.4677 28.8756C21.5464 29.2351 21.5073 29.6001 21.4998 29.9613C21.495 30.1936 21.5706 30.3303 21.7674 30.4498C22.1506 30.6828 22.4892 30.9756 22.7245 31.3641C23.1034 31.9896 22.9401 32.5537 22.2775 32.8707C21.5421 33.2224 20.763 33.2182 19.9767 33.1038C18.8079 32.9337 17.7208 32.5567 16.8093 31.7811C16.3804 31.4161 15.9696 30.9816 16.1374 30.3636C16.3107 29.7255 16.9026 29.5483 17.4712 29.4778C17.8428 29.4318 17.9113 29.3002 17.9109 28.9588C17.9011 21.4246 17.9038 13.8906 17.902 6.35638C17.9017 5.41798 17.52 5.00608 16.6054 4.88968C16.3357 4.85533 16.0687 4.84183 15.801 4.85353C15.5649 4.86388 15.475 4.80268 15.4732 4.54048C15.4669 3.62818 15.4549 3.62833 16.3549 3.58273C17.9457 3.50203 19.5372 3.43213 21.1266 3.33133C21.4671 3.30973 21.5226 3.41458 21.5218 3.72358C21.5109 8.28703 21.5118 12.8506 21.51 17.4141C21.51 17.5303 21.51 17.6466 21.51 17.8665C22.0689 17.2228 22.5913 16.6893 23.2104 16.2609C24.8254 15.1431 26.6407 14.5852 28.5718 14.3916C31.2427 14.1237 33.8223 14.4945 36.2578 15.6555C38.2698 16.6146 39.8622 18.0094 40.7049 20.137C41.0628 21.0406 41.1802 21.9832 41.1789 22.9504C41.173 27.325 41.176 31.6998 41.1757 36.0744C41.1757 36.4669 41.2029 36.8574 41.3082 37.2367C41.6367 38.4201 42.3883 39.067 43.6113 39.144C44.0605 39.1723 43.9021 39.4524 43.9335 39.673C43.9738 39.958 43.8192 39.9969 43.5772 39.9964C40.782 39.9898 37.9869 39.9894 35.1916 39.9957C34.944 39.9963 34.7932 39.9484 34.8342 39.6655C34.8645 39.456 34.7049 39.1756 35.1334 39.1503C36.258 39.0838 37.6057 38.1022 37.5951 36.4398C37.5657 31.8628 37.5913 27.2854 37.5805 22.7083C37.5772 21.3142 36.9405 20.1921 35.9461 19.2637C34.6978 18.0981 33.1855 17.4412 31.533 17.1051C29.3691 16.665 27.2458 16.7502 25.1961 17.6739C24.0277 18.2005 23.0806 19.0167 22.4317 20.0811C21.9534 20.8657 21.6081 21.7645 21.5644 22.7292C21.5401 23.2684 21.4872 23.806 21.5242 24.3462Z" fill="white"/>
<path d="M4.0095 28.7972C5.2458 28.7091 6.06645 29.8508 6.06975 30.768C6.07395 31.9364 5.184 32.8986 4.053 32.9132C2.9457 32.9276 2.0139 32.0223 1.98705 30.906C1.95765 29.6918 2.79045 28.8234 4.0095 28.7972Z" fill="white"/>
<path d="M31.8141 30.6338C31.8278 30.0389 32.3235 29.5536 32.9033 29.5676C33.5043 29.5821 33.9771 30.0981 33.9546 30.7152C33.9329 31.314 33.4445 31.7681 32.8433 31.7483C32.2421 31.7285 31.7999 31.2497 31.8141 30.6338Z" fill="white"/>
<path d="M20.2821 37.7112C20.9636 37.8023 21.6452 37.8926 22.3263 37.9859C22.391 37.9947 22.4529 38.0379 22.5164 38.0385C24.0111 38.051 25.517 38.1426 26.9811 37.7654C28.7121 37.3193 30.2493 36.5289 31.3469 35.0402C31.0887 36.1805 30.4049 36.9912 29.435 37.5933C28.4732 38.1905 27.3993 38.4086 26.2985 38.4873C24.5846 38.6099 22.8872 38.4536 21.2118 38.0664C21.0434 38.0274 20.8454 38.0552 20.7044 37.9754C20.5644 37.896 20.3987 37.8989 20.2821 37.7112Z" fill="url(#paint1_linear_168_3)"/>
<path d="M20.9592 36.1127C21.3375 36.0612 21.6669 36.1245 21.9981 36.1475C23.7256 36.2673 25.4155 36.1815 26.9238 35.1843C27.3516 34.9016 27.7266 34.5557 28.1041 34.0835C27.9369 34.8882 27.4693 35.372 26.9025 35.7672C26.2194 36.2436 25.4245 36.404 24.6135 36.4812C23.4103 36.5957 22.2243 36.437 21.0433 36.2252C21.0258 36.222 21.0139 36.1875 20.9592 36.1127Z" fill="url(#paint2_linear_168_3)"/>
<defs>
<linearGradient id="paint0_linear_168_3" x1="4.70916" y1="31.9306" x2="34.8317" y2="31.9306" gradientUnits="userSpaceOnUse">
<stop stop-color="white"/>
<stop offset="0.5147" stop-color="white"/>
<stop offset="1" stop-color="white"/>
</linearGradient>
<linearGradient id="paint1_linear_168_3" x1="25.8145" y1="35.0402" x2="25.8145" y2="38.5282" gradientUnits="userSpaceOnUse">
<stop stop-color="#302071"/>
<stop offset="1" stop-color="#191541"/>
</linearGradient>
<linearGradient id="paint2_linear_168_3" x1="24.5317" y1="34.0835" x2="24.5317" y2="36.5195" gradientUnits="userSpaceOnUse">
<stop stop-color="#302071"/>
<stop offset="1" stop-color="#191541"/>
</linearGradient>
</defs>
</svg>
