<svg width="100" height="30" viewBox="0 0 78 25" fill="none" xmlns="http://www.w3.org/2000/svg">
<path d="M11.9579 13.5254C12.5882 13.6929 13.2095 13.8916 13.8104 14.1429C14.684 14.5082 15.5608 14.877 16.3481 15.4096C16.7683 15.6939 17.2283 15.9258 17.593 16.2945C17.6691 16.3714 17.6669 16.396 17.6188 16.4667C17.4728 16.6811 17.3943 16.8993 17.4364 17.1781C17.5213 17.7397 18.2125 18.086 18.6858 17.7534C18.8966 17.6053 18.9763 17.6568 19.0821 17.8455C19.3893 18.3932 19.6903 18.9346 19.6823 19.5964C19.6732 20.363 19.3317 20.9483 18.7531 21.4094C18.011 22.0008 17.1315 22.2701 16.2159 22.4366C14.8455 22.6858 13.4712 22.6418 12.0971 22.4659C10.6573 22.2817 9.2656 21.9048 7.90418 21.4098C7.26351 21.1769 6.64276 20.8963 6.04168 20.576C5.33268 20.1982 4.62876 19.809 4.00401 19.2971C3.75018 19.0891 3.50535 18.8694 3.26485 18.6458C3.05268 18.4485 3.05793 18.4429 3.26093 18.2526C3.78426 17.762 3.91351 16.9512 3.52685 16.3466C3.21268 15.8554 2.6781 15.5018 2.02501 15.6498C1.84409 15.6908 1.78659 15.6313 1.82209 15.4469C1.92751 14.8995 2.23768 14.4721 2.6496 14.1213C3.42226 13.4632 4.36951 13.2225 5.33535 13.0245C5.95593 12.8973 6.58576 12.8726 7.21151 12.8681C7.92026 12.8629 8.63301 12.8856 9.33643 13.0116C9.45868 13.0335 9.4951 13.075 9.49843 13.1958C9.5126 13.7047 9.51635 13.7064 9.01093 13.6634C8.58601 13.6274 8.16376 13.5557 7.73501 13.5722C7.05368 13.5985 6.37935 13.6546 5.74093 13.9295C5.15843 14.1804 4.73851 14.595 4.45735 15.1561C4.4296 15.2114 4.38526 15.2745 4.42418 15.3495C4.51785 15.3663 4.55268 15.2854 4.59818 15.2355C5.32985 14.4336 6.26043 14.0543 7.31801 13.9127C7.99201 13.8224 8.65935 13.8349 9.33093 13.9113C9.47176 13.9273 9.50843 13.9879 9.49785 14.114C9.49035 14.2034 9.49468 14.2939 9.49468 14.3839C9.49476 14.7806 9.49593 14.771 9.09776 14.7263C8.43535 14.6518 7.77926 14.6857 7.15251 14.9344C6.65635 15.1314 6.31518 15.488 6.11401 16.0306C6.31526 15.9476 6.40101 15.7916 6.51735 15.6793C7.0116 15.2019 7.6236 15.0073 8.27976 14.9191C8.63551 14.8713 8.9941 14.8423 9.35443 14.8997C9.45751 14.9161 9.50351 14.9531 9.49534 15.0554C9.49418 15.0704 9.4951 15.0854 9.49551 15.1004C9.50751 15.5064 9.50585 15.4957 9.11126 15.5568C8.73526 15.6149 8.35718 15.6753 8.02435 15.8858C7.4506 16.2484 7.32651 16.7573 7.69818 17.3203C7.95718 17.7128 8.31835 18.0051 8.71326 18.252C9.4046 18.6843 10.163 18.9484 10.9587 19.106C11.8022 19.2731 12.6443 19.2964 13.4627 18.9834C13.8312 18.8424 14.1303 18.6157 14.1883 18.1808C14.2229 17.9208 14.1406 17.6897 14.0042 17.4799C13.6414 16.922 13.1139 16.5569 12.5289 16.2701C12.3373 16.1762 12.1551 16.0438 11.9265 16.042C11.935 15.9547 11.9504 15.8673 11.9509 15.7798C11.9548 15.0282 11.956 14.2768 11.9579 13.5254ZM11.2678 20.9504C11.3326 21.0547 11.4248 21.0531 11.5025 21.0971C11.5808 21.1413 11.6908 21.126 11.7844 21.1477C12.7152 21.3628 13.6582 21.4496 14.6103 21.3815C15.2219 21.3378 15.8185 21.2166 16.3528 20.8848C16.8917 20.5503 17.2716 20.0999 17.415 19.4664C16.8053 20.2935 15.9513 20.7326 14.9896 20.9804C14.1762 21.19 13.3397 21.1391 12.5092 21.1322C12.4739 21.1318 12.4395 21.1078 12.4036 21.1029C12.0251 21.0512 11.6464 21.001 11.2678 20.9504ZM11.644 20.0624C11.6744 20.1039 11.681 20.1231 11.6908 20.1249C12.3468 20.2425 13.0058 20.3307 13.6742 20.2671C14.1248 20.2243 14.5663 20.1351 14.9458 19.8704C15.2608 19.6508 15.5205 19.3821 15.6134 18.935C15.4037 19.1973 15.1953 19.3894 14.9577 19.5466C14.1197 20.1006 13.1809 20.1483 12.2212 20.0817C12.0371 20.0689 11.8541 20.0339 11.644 20.0624Z" fill="url(#paint0_linear_201_14)"/>
<path d="M11.958 13.5255C11.956 14.2769 11.9548 15.0283 11.951 15.7796C11.9505 15.8671 11.935 15.9546 11.9265 16.0419C11.9703 16.2416 11.9485 16.4444 11.9444 16.6451C11.9417 16.7741 11.9837 16.8501 12.093 16.9165C12.306 17.0459 12.494 17.2085 12.6248 17.4244C12.8353 17.7719 12.7445 18.0853 12.3765 18.2614C11.9679 18.4568 11.535 18.4545 11.0982 18.3909C10.4489 18.2964 9.84496 18.087 9.33854 17.6561C9.10029 17.4533 8.87204 17.2119 8.96529 16.8686C9.06154 16.5141 9.39038 16.4156 9.70629 16.3765C9.91271 16.3509 9.95079 16.2778 9.95054 16.0881C9.94513 11.9025 9.94663 7.71688 9.94563 3.53122C9.94546 3.00988 9.73338 2.78105 9.22529 2.71638C9.07546 2.6973 8.92713 2.6898 8.77838 2.6963C8.64721 2.70205 8.59729 2.66805 8.59629 2.52238C8.59279 2.01555 8.58613 2.01563 9.08613 1.9903C9.96988 1.94547 10.854 1.90663 11.737 1.85063C11.9262 1.83863 11.957 1.89688 11.9566 2.06855C11.9505 4.6038 11.951 7.13913 11.95 9.67438C11.95 9.73897 11.95 9.80355 11.95 9.92572C12.2605 9.56813 12.5508 9.27172 12.8947 9.03372C13.792 8.41272 14.8005 8.1028 15.8733 7.99522C17.3571 7.84638 18.7902 8.05238 20.1433 8.69738C21.261 9.23022 22.1457 10.0051 22.6139 11.1871C22.8127 11.6891 22.878 12.2128 22.8772 12.7501C22.874 15.1805 22.8756 17.6109 22.8755 20.0412C22.8755 20.2593 22.8905 20.4762 22.949 20.687C23.1315 21.3444 23.5491 21.7038 24.2285 21.7466C24.4781 21.7623 24.3901 21.9179 24.4075 22.0405C24.43 22.1988 24.344 22.2204 24.2096 22.2201C22.6567 22.2165 21.1039 22.2162 19.551 22.2197C19.4134 22.22 19.3296 22.1935 19.3524 22.0363C19.3692 21.9199 19.2805 21.7641 19.5186 21.75C20.1434 21.7131 20.8921 21.1678 20.8862 20.2442C20.8699 17.7015 20.8841 15.1585 20.8781 12.6156C20.8763 11.8411 20.5225 11.2177 19.9701 10.702C19.2766 10.0544 18.4365 9.68947 17.5184 9.50272C16.3162 9.25822 15.1366 9.30555 13.9979 9.81872C13.3488 10.1113 12.8226 10.5647 12.4621 11.1561C12.1964 11.592 12.0045 12.0913 11.9803 12.6272C11.9668 12.9268 11.9374 13.2255 11.958 13.5255Z" fill="white"/>
<path d="M2.22752 15.9983C2.91435 15.9494 3.37027 16.5836 3.3721 17.0932C3.37443 17.7423 2.88002 18.2769 2.25168 18.2849C1.63652 18.2929 1.11885 17.79 1.10393 17.1699C1.0876 16.4953 1.55027 16.0129 2.22752 15.9983Z" fill="white"/>
<path d="M17.6745 17.0185C17.6821 16.688 17.9575 16.4184 18.2796 16.4262C18.6135 16.4343 18.8762 16.7209 18.8637 17.0638C18.8516 17.3964 18.5803 17.6487 18.2463 17.6377C17.9123 17.6267 17.6666 17.3607 17.6745 17.0185Z" fill="white"/>
<path d="M11.2678 20.9505C11.6464 21.0011 12.0251 21.0512 12.4035 21.1031C12.4394 21.108 12.4738 21.132 12.5091 21.1323C13.3395 21.1392 14.1761 21.1901 14.9895 20.9806C15.9512 20.7327 16.8052 20.2936 17.4149 19.4666C17.2715 20.1001 16.8916 20.5505 16.3527 20.885C15.8184 21.2167 15.2218 21.3379 14.6102 21.3816C13.6581 21.4497 12.7151 21.3629 11.7843 21.1478C11.6907 21.1261 11.5807 21.1416 11.5024 21.0972C11.4247 21.0531 11.3326 21.0547 11.2678 20.9505Z" fill="#F9F9FA"/>
<path d="M11.644 20.0624C11.8542 20.0338 12.0372 20.069 12.2212 20.0817C13.181 20.1483 14.1198 20.1006 14.9577 19.5466C15.1954 19.3896 15.4037 19.1974 15.6135 18.9351C15.5205 19.3821 15.2608 19.6509 14.9459 19.8705C14.5664 20.1351 14.1248 20.2242 13.6742 20.2671C13.0058 20.3307 12.3469 20.2426 11.6908 20.1249C11.681 20.1231 11.6745 20.104 11.644 20.0624Z" fill="#F9F9FA"/>
<path d="M30.2506 16.12C29.3706 16.12 28.6146 15.944 27.9826 15.592C27.3586 15.232 26.8786 14.728 26.5426 14.08C26.2066 13.424 26.0386 12.652 26.0386 11.764C26.0386 11.1 26.1346 10.504 26.3266 9.976C26.5186 9.44 26.7946 8.984 27.1546 8.608C27.5146 8.224 27.9546 7.932 28.4746 7.732C29.0026 7.524 29.5946 7.42 30.2506 7.42C30.6906 7.42 31.1226 7.476 31.5466 7.588C31.9706 7.7 32.3426 7.86 32.6626 8.068C32.8306 8.172 32.9426 8.3 32.9986 8.452C33.0546 8.596 33.0666 8.74 33.0346 8.884C33.0026 9.02 32.9346 9.136 32.8306 9.232C32.7346 9.328 32.6106 9.384 32.4586 9.4C32.3146 9.408 32.1546 9.356 31.9786 9.244C31.7306 9.084 31.4626 8.968 31.1746 8.896C30.8866 8.824 30.5946 8.788 30.2986 8.788C29.7306 8.788 29.2506 8.904 28.8586 9.136C28.4666 9.368 28.1706 9.704 27.9706 10.144C27.7706 10.584 27.6706 11.124 27.6706 11.764C27.6706 12.396 27.7706 12.936 27.9706 13.384C28.1706 13.832 28.4666 14.172 28.8586 14.404C29.2506 14.636 29.7306 14.752 30.2986 14.752C30.6026 14.752 30.9026 14.716 31.1986 14.644C31.4946 14.564 31.7746 14.444 32.0386 14.284C32.2146 14.18 32.3706 14.136 32.5066 14.152C32.6506 14.16 32.7706 14.208 32.8666 14.296C32.9626 14.384 33.0266 14.496 33.0586 14.632C33.0906 14.76 33.0826 14.896 33.0346 15.04C32.9866 15.176 32.8906 15.296 32.7466 15.4C32.4266 15.632 32.0426 15.812 31.5946 15.94C31.1546 16.06 30.7066 16.12 30.2506 16.12ZM35.0949 16.096C34.8469 16.096 34.6549 16.032 34.5189 15.904C34.3909 15.768 34.3269 15.576 34.3269 15.328V10.792C34.3269 10.544 34.3909 10.356 34.5189 10.228C34.6469 10.1 34.8269 10.036 35.0589 10.036C35.2909 10.036 35.4709 10.1 35.5989 10.228C35.7269 10.356 35.7909 10.544 35.7909 10.792V11.548H35.6709C35.7829 11.068 36.0029 10.704 36.3309 10.456C36.6589 10.208 37.0949 10.06 37.6389 10.012C37.8069 9.996 37.9389 10.04 38.0349 10.144C38.1389 10.24 38.1989 10.392 38.2149 10.6C38.2309 10.8 38.1829 10.964 38.0709 11.092C37.9669 11.212 37.8069 11.284 37.5909 11.308L37.3269 11.332C36.8389 11.38 36.4709 11.532 36.2229 11.788C35.9749 12.036 35.8509 12.388 35.8509 12.844V15.328C35.8509 15.576 35.7869 15.768 35.6589 15.904C35.5309 16.032 35.3429 16.096 35.0949 16.096ZM41.8243 16.12C41.1603 16.12 40.5883 15.996 40.1083 15.748C39.6283 15.5 39.2563 15.148 38.9923 14.692C38.7363 14.236 38.6083 13.696 38.6083 13.072C38.6083 12.464 38.7323 11.932 38.9803 11.476C39.2363 11.02 39.5843 10.664 40.0243 10.408C40.4723 10.144 40.9803 10.012 41.5483 10.012C41.9643 10.012 42.3363 10.08 42.6643 10.216C43.0003 10.352 43.2843 10.548 43.5163 10.804C43.7563 11.06 43.9363 11.372 44.0563 11.74C44.1843 12.1 44.2483 12.508 44.2483 12.964C44.2483 13.108 44.1963 13.22 44.0923 13.3C43.9963 13.372 43.8563 13.408 43.6723 13.408H39.8203V12.544H43.1923L43.0003 12.724C43.0003 12.356 42.9443 12.048 42.8323 11.8C42.7283 11.552 42.5723 11.364 42.3643 11.236C42.1643 11.1 41.9123 11.032 41.6083 11.032C41.2723 11.032 40.9843 11.112 40.7443 11.272C40.5123 11.424 40.3323 11.644 40.2043 11.932C40.0843 12.212 40.0243 12.548 40.0243 12.94V13.024C40.0243 13.68 40.1763 14.172 40.4803 14.5C40.7923 14.82 41.2483 14.98 41.8483 14.98C42.0563 14.98 42.2883 14.956 42.5443 14.908C42.8083 14.852 43.0563 14.76 43.2883 14.632C43.4563 14.536 43.6043 14.496 43.7323 14.512C43.8603 14.52 43.9603 14.564 44.0323 14.644C44.1123 14.724 44.1603 14.824 44.1763 14.944C44.1923 15.056 44.1683 15.172 44.1043 15.292C44.0483 15.412 43.9483 15.516 43.8043 15.604C43.5243 15.78 43.2003 15.912 42.8323 16C42.4723 16.08 42.1363 16.12 41.8243 16.12ZM47.3683 16.12C46.9443 16.12 46.5643 16.04 46.2283 15.88C45.9003 15.712 45.6403 15.488 45.4482 15.208C45.2643 14.928 45.1723 14.612 45.1723 14.26C45.1723 13.828 45.2843 13.488 45.5083 13.24C45.7323 12.984 46.0963 12.8 46.6003 12.688C47.1043 12.576 47.7803 12.52 48.6283 12.52H49.2283V13.384H48.6403C48.1443 13.384 47.7483 13.408 47.4523 13.456C47.1563 13.504 46.9443 13.588 46.8163 13.708C46.6963 13.82 46.6363 13.98 46.6363 14.188C46.6363 14.452 46.7283 14.668 46.9123 14.836C47.0963 15.004 47.3523 15.088 47.6803 15.088C47.9443 15.088 48.1763 15.028 48.3763 14.908C48.5843 14.78 48.7483 14.608 48.8683 14.392C48.9883 14.176 49.0483 13.928 49.0483 13.648V12.268C49.0483 11.868 48.9603 11.58 48.7843 11.404C48.6083 11.228 48.3123 11.14 47.8963 11.14C47.6643 11.14 47.4123 11.168 47.1403 11.224C46.8763 11.28 46.5963 11.376 46.3003 11.512C46.1483 11.584 46.0123 11.604 45.8923 11.572C45.7803 11.54 45.6923 11.476 45.6283 11.38C45.5643 11.276 45.5323 11.164 45.5323 11.044C45.5323 10.924 45.5643 10.808 45.6283 10.696C45.6923 10.576 45.8003 10.488 45.9523 10.432C46.3203 10.28 46.6723 10.172 47.0083 10.108C47.3523 10.044 47.6643 10.012 47.9443 10.012C48.5203 10.012 48.9923 10.1 49.3603 10.276C49.7363 10.452 50.0163 10.72 50.2003 11.08C50.3843 11.432 50.4763 11.888 50.4763 12.448V15.328C50.4763 15.576 50.4163 15.768 50.2963 15.904C50.1763 16.032 50.0043 16.096 49.7803 16.096C49.5563 16.096 49.3803 16.032 49.2523 15.904C49.1323 15.768 49.0723 15.576 49.0723 15.328V14.752H49.1683C49.1123 15.032 49.0003 15.276 48.8323 15.484C48.6723 15.684 48.4683 15.84 48.2203 15.952C47.9723 16.064 47.6883 16.12 47.3683 16.12ZM54.6868 16.12C54.1668 16.12 53.7308 16.032 53.3788 15.856C53.0348 15.68 52.7788 15.424 52.6108 15.088C52.4428 14.744 52.3588 14.32 52.3588 13.816V11.26H51.7348C51.5428 11.26 51.3948 11.212 51.2908 11.116C51.1867 11.012 51.1347 10.872 51.1347 10.696C51.1347 10.512 51.1867 10.372 51.2908 10.276C51.3948 10.18 51.5428 10.132 51.7348 10.132H52.3588V9.04C52.3588 8.792 52.4228 8.604 52.5508 8.476C52.6868 8.348 52.8748 8.284 53.1148 8.284C53.3548 8.284 53.5388 8.348 53.6668 8.476C53.7948 8.604 53.8588 8.792 53.8588 9.04V10.132H55.1308C55.3228 10.132 55.4708 10.18 55.5748 10.276C55.6788 10.372 55.7308 10.512 55.7308 10.696C55.7308 10.872 55.6788 11.012 55.5748 11.116C55.4708 11.212 55.3228 11.26 55.1308 11.26H53.8588V13.732C53.8588 14.116 53.9428 14.404 54.1108 14.596C54.2788 14.788 54.5508 14.884 54.9268 14.884C55.0628 14.884 55.1828 14.872 55.2868 14.848C55.3908 14.824 55.4828 14.808 55.5628 14.8C55.6588 14.792 55.7388 14.824 55.8028 14.896C55.8668 14.96 55.8988 15.096 55.8988 15.304C55.8988 15.464 55.8708 15.608 55.8148 15.736C55.7668 15.856 55.6748 15.94 55.5388 15.988C55.4348 16.02 55.2988 16.048 55.1308 16.072C54.9628 16.104 54.8148 16.12 54.6868 16.12ZM57.5006 16.084C57.2606 16.084 57.0766 16.012 56.9486 15.868C56.8206 15.724 56.7566 15.524 56.7566 15.268V10.864C56.7566 10.6 56.8206 10.4 56.9486 10.264C57.0766 10.12 57.2606 10.048 57.5006 10.048C57.7406 10.048 57.9246 10.12 58.0526 10.264C58.1886 10.4 58.2566 10.6 58.2566 10.864V15.268C58.2566 15.524 58.1926 15.724 58.0646 15.868C57.9366 16.012 57.7486 16.084 57.5006 16.084ZM57.5006 8.932C57.2206 8.932 57.0006 8.864 56.8406 8.728C56.6886 8.584 56.6126 8.388 56.6126 8.14C56.6126 7.884 56.6886 7.688 56.8406 7.552C57.0006 7.416 57.2206 7.348 57.5006 7.348C57.7886 7.348 58.0086 7.416 58.1606 7.552C58.3126 7.688 58.3886 7.884 58.3886 8.14C58.3886 8.388 58.3126 8.584 58.1606 8.728C58.0086 8.864 57.7886 8.932 57.5006 8.932ZM62.1912 16.096C61.9912 16.096 61.8152 16.044 61.6632 15.94C61.5192 15.836 61.3992 15.676 61.3032 15.46L59.3952 11.032C59.3232 10.856 59.2952 10.692 59.3112 10.54C59.3352 10.388 59.4072 10.268 59.5272 10.18C59.6552 10.084 59.8272 10.036 60.0432 10.036C60.2272 10.036 60.3752 10.08 60.4872 10.168C60.5992 10.248 60.6992 10.404 60.7872 10.636L62.4072 14.68H62.0472L63.7152 10.624C63.8032 10.4 63.9032 10.248 64.0152 10.168C64.1352 10.08 64.2952 10.036 64.4952 10.036C64.6712 10.036 64.8112 10.084 64.9152 10.18C65.0192 10.268 65.0832 10.388 65.1072 10.54C65.1312 10.684 65.1032 10.844 65.0232 11.02L63.0792 15.46C62.9912 15.676 62.8712 15.836 62.7192 15.94C62.5752 16.044 62.3992 16.096 62.1912 16.096ZM68.9181 16.12C68.2541 16.12 67.6821 15.996 67.2021 15.748C66.7221 15.5 66.3501 15.148 66.0861 14.692C65.8301 14.236 65.7021 13.696 65.7021 13.072C65.7021 12.464 65.8261 11.932 66.0741 11.476C66.3301 11.02 66.6781 10.664 67.1181 10.408C67.5661 10.144 68.0741 10.012 68.6421 10.012C69.0581 10.012 69.4301 10.08 69.7581 10.216C70.0941 10.352 70.3781 10.548 70.6101 10.804C70.8501 11.06 71.0301 11.372 71.1501 11.74C71.2781 12.1 71.3421 12.508 71.3421 12.964C71.3421 13.108 71.2901 13.22 71.1861 13.3C71.0901 13.372 70.9501 13.408 70.7661 13.408H66.9141V12.544H70.2861L70.0941 12.724C70.0941 12.356 70.0381 12.048 69.9261 11.8C69.8221 11.552 69.6661 11.364 69.4581 11.236C69.2581 11.1 69.0061 11.032 68.7021 11.032C68.3661 11.032 68.0781 11.112 67.8381 11.272C67.6061 11.424 67.4261 11.644 67.2981 11.932C67.1781 12.212 67.1181 12.548 67.1181 12.94V13.024C67.1181 13.68 67.2701 14.172 67.5741 14.5C67.8861 14.82 68.3421 14.98 68.9421 14.98C69.1501 14.98 69.3821 14.956 69.6381 14.908C69.9021 14.852 70.1501 14.76 70.3821 14.632C70.5501 14.536 70.6981 14.496 70.8261 14.512C70.9541 14.52 71.0541 14.564 71.1261 14.644C71.2061 14.724 71.2541 14.824 71.2701 14.944C71.2861 15.056 71.2621 15.172 71.1981 15.292C71.1421 15.412 71.0421 15.516 70.8981 15.604C70.6181 15.78 70.2941 15.912 69.9261 16C69.5661 16.08 69.2301 16.12 68.9181 16.12ZM74.678 16.12C74.334 16.12 73.97 16.084 73.586 16.012C73.202 15.94 72.858 15.816 72.554 15.64C72.426 15.56 72.334 15.468 72.278 15.364C72.23 15.252 72.21 15.144 72.218 15.04C72.234 14.928 72.274 14.832 72.338 14.752C72.41 14.672 72.498 14.62 72.602 14.596C72.714 14.572 72.834 14.592 72.962 14.656C73.282 14.808 73.582 14.916 73.862 14.98C74.142 15.036 74.418 15.064 74.69 15.064C75.074 15.064 75.358 15 75.542 14.872C75.734 14.736 75.83 14.56 75.83 14.344C75.83 14.16 75.766 14.02 75.638 13.924C75.518 13.82 75.334 13.744 75.086 13.696L73.886 13.468C73.39 13.372 73.01 13.192 72.746 12.928C72.49 12.656 72.362 12.308 72.362 11.884C72.362 11.5 72.466 11.168 72.674 10.888C72.89 10.608 73.186 10.392 73.562 10.24C73.938 10.088 74.37 10.012 74.858 10.012C75.21 10.012 75.538 10.052 75.842 10.132C76.154 10.204 76.454 10.32 76.742 10.48C76.862 10.544 76.942 10.628 76.982 10.732C77.03 10.836 77.042 10.944 77.018 11.056C76.994 11.16 76.946 11.256 76.874 11.344C76.802 11.424 76.71 11.476 76.598 11.5C76.494 11.516 76.374 11.492 76.238 11.428C75.99 11.3 75.75 11.208 75.518 11.152C75.294 11.096 75.078 11.068 74.87 11.068C74.478 11.068 74.186 11.136 73.994 11.272C73.81 11.408 73.718 11.588 73.718 11.812C73.718 11.98 73.774 12.12 73.886 12.232C73.998 12.344 74.17 12.42 74.402 12.46L75.602 12.688C76.122 12.784 76.514 12.96 76.778 13.216C77.05 13.472 77.186 13.816 77.186 14.248C77.186 14.832 76.958 15.292 76.502 15.628C76.046 15.956 75.438 16.12 74.678 16.12Z" fill="white"/>
<defs>
<linearGradient id="paint0_linear_201_14" x1="2.61622" y1="17.739" x2="19.351" y2="17.739" gradientUnits="userSpaceOnUse">
<stop stop-color="#7AC68F"/>
<stop offset="0.5147" stop-color="#2CBCEE"/>
<stop offset="1" stop-color="#6E5DA8"/>
</linearGradient>
</defs>
</svg>
